{
	"asset":{
		"version":"2.0",
		"generator":"Created using the official Cinema 4D glTF Exporter 1.000x284978"
	},
	"scenes":[{
		"nodes":[0,
		5,
		11]
	}],
	"nodes":[{
		"name":"Boole.4",
		"translation":[16.63913345336914,
		49.393280029296878,
		-64.49480438232422],
		"rotation":[0.23411226272583009,
		0.9473806023597717,
		0.1298046112060547,
		0.1755342185497284],
		"scale":[1.0,
		1.0,
		1.0],
		"children":[1,
		2]
	},
	{
		"name":"Cube",
		"translation":[2.878297805786133,
		-11.35975456237793,
		-25.827320098876954],
		"rotation":[0.0,
		-5.551115123125783e-17,
		0.0,
		-1.0],
		"scale":[1.0,
		1.0,
		1.0],
		"mesh":0
	},
	{
		"name":"Null.2",
		"translation":[2.370565176010132,
		-2.391646146774292,
		13.926433563232422],
		"rotation":[0.0,
		-0.7071067690849304,
		0.0,
		0.7071067690849304],
		"scale":[1.0,
		1.0,
		1.0],
		"children":[3,
		4]
	},
	{
		"name":"Cube.3",
		"translation":[4.263256414560601e-14,
		-5.684341886080802e-14,
		-18.928356170654298],
		"rotation":[-2.0816681711721686e-17,
		0.0,
		0.0,
		-1.0],
		"scale":[1.0,
		1.0,
		1.0],
		"mesh":1
	},
	{
		"name":"Cube.2",
		"translation":[5.684341886080802e-14,
		-7.105427357601002e-14,
		18.928356170654298],
		"rotation":[-2.0816681711721686e-17,
		0.0,
		0.0,
		-1.0],
		"scale":[1.0,
		1.0,
		1.0],
		"mesh":2
	},
	{
		"name":"Boole.3",
		"translation":[158.62266540527345,
		43.80183410644531,
		28.849754333496095],
		"rotation":[0.09407114237546921,
		0.6034356951713562,
		0.03844018653035164,
		0.7909098267555237],
		"scale":[1.0,
		1.0,
		1.0],
		"children":[6,
		7]
	},
	{
		"name":"Cube",
		"translation":[1.1874966621398926,
		1.8332358598709107,
		-2.088240385055542],
		"rotation":[-3.469446951953614e-18,
		-1.3877787807814458e-17,
		4.81482486096809e-35,
		-1.0],
		"scale":[1.0,
		1.0,
		1.0],
		"mesh":3
	},
	{
		"name":"Null.1",
		"translation":[0.0,
		-1.8332358598709107,
		2.088240385055542],
		"rotation":[0.0,
		0.0,
		0.0,
		-1.0],
		"scale":[1.0,
		1.0,
		1.0],
		"children":[8,
		9,
		10]
	},
	{
		"name":"Cylinder",
		"translation":[-156.90879821777345,
		0.0,
		2.1316282072803007e-14],
		"rotation":[-3.469446951953614e-18,
		-1.3877787807814458e-17,
		4.81482486096809e-35,
		-1.0],
		"scale":[1.0,
		1.0,
		1.0],
		"mesh":4
	},
	{
		"name":"Cylinder.1",
		"translation":[7.265386581420898,
		-8.881784197001253e-16,
		1.1546319456101628e-14],
		"rotation":[-3.469446951953614e-18,
		-1.3877787807814458e-17,
		4.81482486096809e-35,
		-1.0],
		"scale":[1.0,
		1.0,
		1.0],
		"mesh":5
	},
	{
		"name":"Cylinder.2",
		"translation":[156.90879821777345,
		1.7763568394002506e-14,
		2.842170943040401e-14],
		"rotation":[-3.469446951953614e-18,
		-1.3877787807814458e-17,
		4.81482486096809e-35,
		-1.0],
		"scale":[1.0,
		1.0,
		1.0],
		"mesh":6
	},
	{
		"name":"Boole.2",
		"translation":[-157.98837280273438,
		12.818010330200196,
		10.365740776062012],
		"rotation":[0.031358178704977038,
		-0.9410369992256165,
		-0.13553866744041444,
		0.3083752691745758],
		"scale":[1.0,
		1.0,
		1.0],
		"children":[12,
		13]
	},
	{
		"name":"Cube",
		"translation":[-0.4149092733860016,
		1.8332358598709107,
		-3.509568214416504],
		"rotation":[-1.3877787807814458e-17,
		0.0,
		0.0,
		-1.0],
		"scale":[1.0,
		1.0,
		1.0],
		"mesh":7
	},
	{
		"name":"Null.1",
		"translation":[0.0,
		-1.8332358598709107,
		3.509568214416504],
		"rotation":[0.0,
		0.0,
		0.0,
		-1.0],
		"scale":[1.0,
		1.0,
		1.0],
		"children":[14,
		15]
	},
	{
		"name":"Cylinder.1",
		"translation":[18.856081008911134,
		-2.6645352591003758e-15,
		-1.7763568394002506e-15],
		"rotation":[-1.3877787807814458e-17,
		0.0,
		0.0,
		-1.0],
		"scale":[1.0,
		1.0,
		1.0],
		"mesh":8
	},
	{
		"name":"Cylinder",
		"translation":[-18.856081008911134,
		-2.1094237467877976e-15,
		-1.7763568394002506e-15],
		"rotation":[-1.3877787807814458e-17,
		0.0,
		0.0,
		-1.0],
		"scale":[1.0,
		1.0,
		1.0],
		"mesh":9
	}],
	"meshes":[{
		"name":"Cube",
		"primitives":[{
			"attributes":{
				"POSITION":1,
				"NORMAL":2,
				"TEXCOORD_0":3
			},
			"indices":0,
			"material":0
		}]
	},
	{
		"name":"Cube.3",
		"primitives":[{
			"attributes":{
				"POSITION":5,
				"NORMAL":6,
				"TEXCOORD_0":7
			},
			"indices":4
		}]
	},
	{
		"name":"Cube.2",
		"primitives":[{
			"attributes":{
				"POSITION":9,
				"NORMAL":10,
				"TEXCOORD_0":11
			},
			"indices":8
		}]
	},
	{
		"name":"Cube",
		"primitives":[{
			"attributes":{
				"POSITION":13,
				"NORMAL":14,
				"TEXCOORD_0":15
			},
			"indices":12,
			"material":0
		}]
	},
	{
		"name":"Cylinder",
		"primitives":[{
			"attributes":{
				"POSITION":17,
				"NORMAL":18,
				"TEXCOORD_0":19
			},
			"indices":16
		}]
	},
	{
		"name":"Cylinder.1",
		"primitives":[{
			"attributes":{
				"POSITION":21,
				"NORMAL":22,
				"TEXCOORD_0":23
			},
			"indices":20
		}]
	},
	{
		"name":"Cylinder.2",
		"primitives":[{
			"attributes":{
				"POSITION":25,
				"NORMAL":26,
				"TEXCOORD_0":27
			},
			"indices":24
		}]
	},
	{
		"name":"Cube",
		"primitives":[{
			"attributes":{
				"POSITION":29,
				"NORMAL":30,
				"TEXCOORD_0":31
			},
			"indices":28,
			"material":0
		}]
	},
	{
		"name":"Cylinder.1",
		"primitives":[{
			"attributes":{
				"POSITION":33,
				"NORMAL":34,
				"TEXCOORD_0":35
			},
			"indices":32
		}]
	},
	{
		"name":"Cylinder",
		"primitives":[{
			"attributes":{
				"POSITION":37,
				"NORMAL":38,
				"TEXCOORD_0":39
			},
			"indices":36
		}]
	}],
	"accessors":[{
		"bufferView":0,
		"type":"SCALAR",
		"componentType":5123,
		"min":[0],
		"count":492,
		"byteOffset":0,
		"max":[179]
	},
	{
		"bufferView":1,
		"type":"VEC3",
		"componentType":5126,
		"min":[-56.496883392333987,
		-3.434450387954712,
		-38.23868179321289],
		"count":180,
		"byteOffset":0,
		"max":[56.496883392333987,
		3.434450387954712,
		38.23868179321289]
	},
	{
		"bufferView":1,
		"type":"VEC3",
		"componentType":5126,
		"min":[-1.0,
		-1.0,
		-0.4292632043361664],
		"count":180,
		"byteOffset":12,
		"max":[1.0,
		0.9999998807907105,
		1.0]
	},
	{
		"bufferView":1,
		"type":"VEC2",
		"componentType":5126,
		"min":[0.0,
		0.0],
		"count":180,
		"byteOffset":24,
		"max":[1.0,
		1.0]
	},
	{
		"bufferView":2,
		"type":"SCALAR",
		"componentType":5123,
		"min":[0],
		"count":216,
		"byteOffset":0,
		"max":[77]
	},
	{
		"bufferView":3,
		"type":"VEC3",
		"componentType":5126,
		"min":[-38.01039505004883,
		-12.402559280395508,
		-5.08332633972168],
		"count":78,
		"byteOffset":0,
		"max":[-1.5150737762451172,
		-5.533658504486084,
		5.08332633972168]
	},
	{
		"bufferView":3,
		"type":"VEC3",
		"componentType":5126,
		"min":[0.0,
		0.0,
		-1.0],
		"count":78,
		"byteOffset":12,
		"max":[0.9998813271522522,
		2.1382609787207816e-19,
		1.0]
	},
	{
		"bufferView":3,
		"type":"VEC2",
		"componentType":5126,
		"min":[0.0,
		0.581588625907898],
		"count":78,
		"byteOffset":24,
		"max":[1.0,
		0.6828640699386597]
	},
	{
		"bufferView":4,
		"type":"SCALAR",
		"componentType":5123,
		"min":[0],
		"count":216,
		"byteOffset":0,
		"max":[77]
	},
	{
		"bufferView":5,
		"type":"VEC3",
		"componentType":5126,
		"min":[-38.01039505004883,
		-12.402559280395508,
		-5.08332633972168],
		"count":78,
		"byteOffset":0,
		"max":[-1.5150737762451172,
		-5.533658504486084,
		5.08332633972168]
	},
	{
		"bufferView":5,
		"type":"VEC3",
		"componentType":5126,
		"min":[0.0,
		0.0,
		-1.0],
		"count":78,
		"byteOffset":12,
		"max":[0.9998813271522522,
		2.1382609787207816e-19,
		1.0]
	},
	{
		"bufferView":5,
		"type":"VEC2",
		"componentType":5126,
		"min":[0.0,
		0.581588625907898],
		"count":78,
		"byteOffset":24,
		"max":[1.0,
		0.6828640699386597]
	},
	{
		"bufferView":6,
		"type":"SCALAR",
		"componentType":5123,
		"min":[0],
		"count":360,
		"byteOffset":0,
		"max":[119]
	},
	{
		"bufferView":7,
		"type":"VEC3",
		"componentType":5126,
		"min":[-200.6622772216797,
		-3.434450387954712,
		-21.88951873779297],
		"count":120,
		"byteOffset":0,
		"max":[200.6622772216797,
		3.434450387954712,
		21.88951873779297]
	},
	{
		"bufferView":7,
		"type":"VEC3",
		"componentType":5126,
		"min":[-1.0,
		-1.0,
		-0.638789713382721],
		"count":120,
		"byteOffset":12,
		"max":[1.0,
		0.9999995827674866,
		1.0]
	},
	{
		"bufferView":7,
		"type":"VEC2",
		"componentType":5126,
		"min":[0.0,
		0.0],
		"count":120,
		"byteOffset":24,
		"max":[1.0,
		1.0]
	},
	{
		"bufferView":8,
		"type":"SCALAR",
		"componentType":5123,
		"min":[0],
		"count":96,
		"byteOffset":0,
		"max":[33]
	},
	{
		"bufferView":9,
		"type":"VEC3",
		"componentType":5126,
		"min":[-5.051562786102295,
		0.23202131688594819,
		-5.051562786102295],
		"count":34,
		"byteOffset":0,
		"max":[5.051562786102295,
		7.0881500244140629,
		5.051562786102295]
	},
	{
		"bufferView":9,
		"type":"VEC3",
		"componentType":5126,
		"min":[-0.9978091716766357,
		0.0,
		-0.9978091716766357],
		"count":34,
		"byteOffset":12,
		"max":[0.9978091716766357,
		0.0,
		0.9978091716766357]
	},
	{
		"bufferView":9,
		"type":"VEC2",
		"componentType":5126,
		"min":[0.0,
		0.4643811583518982],
		"count":34,
		"byteOffset":24,
		"max":[1.0,
		0.4988340735435486]
	},
	{
		"bufferView":10,
		"type":"SCALAR",
		"componentType":5123,
		"min":[0],
		"count":96,
		"byteOffset":0,
		"max":[33]
	},
	{
		"bufferView":11,
		"type":"VEC3",
		"componentType":5126,
		"min":[-5.051562786102295,
		0.23202131688594819,
		-5.051562786102295],
		"count":34,
		"byteOffset":0,
		"max":[5.051562786102295,
		7.0881500244140629,
		5.051562786102295]
	},
	{
		"bufferView":11,
		"type":"VEC3",
		"componentType":5126,
		"min":[-0.9978091716766357,
		0.0,
		-0.9978091716766357],
		"count":34,
		"byteOffset":12,
		"max":[0.9978091716766357,
		0.0,
		0.9978091716766357]
	},
	{
		"bufferView":11,
		"type":"VEC2",
		"componentType":5126,
		"min":[0.0,
		0.4643811583518982],
		"count":34,
		"byteOffset":24,
		"max":[1.0,
		0.4988340735435486]
	},
	{
		"bufferView":12,
		"type":"SCALAR",
		"componentType":5123,
		"min":[0],
		"count":96,
		"byteOffset":0,
		"max":[33]
	},
	{
		"bufferView":13,
		"type":"VEC3",
		"componentType":5126,
		"min":[-5.051562786102295,
		0.23202131688594819,
		-5.051562786102295],
		"count":34,
		"byteOffset":0,
		"max":[5.051562786102295,
		7.0881500244140629,
		5.051562786102295]
	},
	{
		"bufferView":13,
		"type":"VEC3",
		"componentType":5126,
		"min":[-0.9978091716766357,
		0.0,
		-0.9978091716766357],
		"count":34,
		"byteOffset":12,
		"max":[0.9978091716766357,
		0.0,
		0.9978091716766357]
	},
	{
		"bufferView":13,
		"type":"VEC2",
		"componentType":5126,
		"min":[0.0,
		0.4643811583518982],
		"count":34,
		"byteOffset":24,
		"max":[1.0,
		0.4988340735435486]
	},
	{
		"bufferView":14,
		"type":"SCALAR",
		"componentType":5123,
		"min":[0],
		"count":252,
		"byteOffset":0,
		"max":[87]
	},
	{
		"bufferView":15,
		"type":"VEC3",
		"componentType":5126,
		"min":[-31.262311935424806,
		-3.434450387954712,
		-38.23868179321289],
		"count":88,
		"byteOffset":0,
		"max":[31.262311935424806,
		3.434450387954712,
		38.23868179321289]
	},
	{
		"bufferView":15,
		"type":"VEC3",
		"componentType":5126,
		"min":[-1.0,
		-1.0,
		-0.429263174533844],
		"count":88,
		"byteOffset":12,
		"max":[1.0,
		0.9999998807907105,
		1.0]
	},
	{
		"bufferView":15,
		"type":"VEC2",
		"componentType":5126,
		"min":[0.0,
		0.0],
		"count":88,
		"byteOffset":24,
		"max":[1.0,
		1.0]
	},
	{
		"bufferView":16,
		"type":"SCALAR",
		"componentType":5123,
		"min":[0],
		"count":96,
		"byteOffset":0,
		"max":[33]
	},
	{
		"bufferView":17,
		"type":"VEC3",
		"componentType":5126,
		"min":[-5.051562786102295,
		0.23202131688594819,
		-5.051562786102295],
		"count":34,
		"byteOffset":0,
		"max":[5.051562786102295,
		7.085811614990234,
		5.051562786102295]
	},
	{
		"bufferView":17,
		"type":"VEC3",
		"componentType":5126,
		"min":[-0.9978091716766357,
		0.0,
		-0.997809112071991],
		"count":34,
		"byteOffset":12,
		"max":[0.9978091716766357,
		0.0,
		0.9978091716766357]
	},
	{
		"bufferView":17,
		"type":"VEC2",
		"componentType":5126,
		"min":[0.0,
		0.46439290046691897],
		"count":34,
		"byteOffset":24,
		"max":[1.0,
		0.4988340735435486]
	},
	{
		"bufferView":18,
		"type":"SCALAR",
		"componentType":5123,
		"min":[0],
		"count":96,
		"byteOffset":0,
		"max":[33]
	},
	{
		"bufferView":19,
		"type":"VEC3",
		"componentType":5126,
		"min":[-5.051562786102295,
		0.23202131688594819,
		-5.051562786102295],
		"count":34,
		"byteOffset":0,
		"max":[5.051562786102295,
		7.085811614990234,
		5.051562786102295]
	},
	{
		"bufferView":19,
		"type":"VEC3",
		"componentType":5126,
		"min":[-0.9978091716766357,
		0.0,
		-0.997809112071991],
		"count":34,
		"byteOffset":12,
		"max":[0.9978091716766357,
		0.0,
		0.9978091716766357]
	},
	{
		"bufferView":19,
		"type":"VEC2",
		"componentType":5126,
		"min":[0.0,
		0.46439290046691897],
		"count":34,
		"byteOffset":24,
		"max":[1.0,
		0.4988340735435486]
	}],
	"bufferViews":[{
		"buffer":0,
		"byteOffset":0,
		"byteLength":984,
		"target":34963
	},
	{
		"buffer":0,
		"byteOffset":984,
		"byteLength":5760,
		"target":34962,
		"byteStride":32
	},
	{
		"buffer":1,
		"byteOffset":0,
		"byteLength":432,
		"target":34963
	},
	{
		"buffer":1,
		"byteOffset":432,
		"byteLength":2496,
		"target":34962,
		"byteStride":32
	},
	{
		"buffer":2,
		"byteOffset":0,
		"byteLength":432,
		"target":34963
	},
	{
		"buffer":2,
		"byteOffset":432,
		"byteLength":2496,
		"target":34962,
		"byteStride":32
	},
	{
		"buffer":3,
		"byteOffset":0,
		"byteLength":720,
		"target":34963
	},
	{
		"buffer":3,
		"byteOffset":720,
		"byteLength":3840,
		"target":34962,
		"byteStride":32
	},
	{
		"buffer":4,
		"byteOffset":0,
		"byteLength":192,
		"target":34963
	},
	{
		"buffer":4,
		"byteOffset":192,
		"byteLength":1088,
		"target":34962,
		"byteStride":32
	},
	{
		"buffer":5,
		"byteOffset":0,
		"byteLength":192,
		"target":34963
	},
	{
		"buffer":5,
		"byteOffset":192,
		"byteLength":1088,
		"target":34962,
		"byteStride":32
	},
	{
		"buffer":6,
		"byteOffset":0,
		"byteLength":192,
		"target":34963
	},
	{
		"buffer":6,
		"byteOffset":192,
		"byteLength":1088,
		"target":34962,
		"byteStride":32
	},
	{
		"buffer":7,
		"byteOffset":0,
		"byteLength":504,
		"target":34963
	},
	{
		"buffer":7,
		"byteOffset":504,
		"byteLength":2816,
		"target":34962,
		"byteStride":32
	},
	{
		"buffer":8,
		"byteOffset":0,
		"byteLength":192,
		"target":34963
	},
	{
		"buffer":8,
		"byteOffset":192,
		"byteLength":1088,
		"target":34962,
		"byteStride":32
	},
	{
		"buffer":9,
		"byteOffset":0,
		"byteLength":192,
		"target":34963
	},
	{
		"buffer":9,
		"byteOffset":192,
		"byteLength":1088,
		"target":34962,
		"byteStride":32
	}],
	"buffers":[{
		"uri":"data:application/octet-stream;base64,",
		"byteLength":6744
	},
	{
		"uri":"data:application/octet-stream;base64,",
		"byteLength":2928
	},
	{
		"uri":"data:application/octet-stream;base64,",
		"byteLength":2928
	},
	{
		"uri":"data:application/octet-stream;base64,",
		"byteLength":4560
	},
	{
		"uri":"data:application/octet-stream;base64,",
		"byteLength":1280
	},
	{
		"uri":"data:application/octet-stream;base64,",
		"byteLength":1280
	},
	{
		"uri":"data:application/octet-stream;base64,",
		"byteLength":1280
	},
	{
		"uri":"data:application/octet-stream;base64,",
		"byteLength":3320
	},
	{
		"uri":"data:application/octet-stream;base64,",
		"byteLength":1280
	},
	{
		"uri":"data:application/octet-stream;base64,",
		"byteLength":1280
	}],
	"materials":[{
		"doubleSided":false,
		"pbrMetallicRoughness":{
			"baseColorFactor":[1.0,
			1.0,
			1.0,
			1.0],
			"metallicFactor":1.0,
			"roughnessFactor":0.1
		},
		"emissiveFactor":[0.0,
		0.0,
		0.0],
		"alphaMode":"OPAQUE",
		"name":"Mat.5"
	}]
}